<svg id="Group_64" data-name="Group 64" xmlns="http://www.w3.org/2000/svg" width="102.072" height="98.967" viewBox="0 0 102.072 98.967">
  <path id="Path_293" data-name="Path 293" d="M478.919,117.11a34.434,34.434,0,0,1,45.938-30.988l-.529-.081A37.39,37.39,0,0,1,546.375,99a35.052,35.052,0,0,1,7.432,27.068,32.93,32.93,0,0,1-15.682,23.143c-6.251,3.621-13.627,4.99-20.85,4.828-9.156-.2-18.426-2.907-25.558-8.654A35.008,35.008,0,0,1,478.919,117.11Z" transform="translate(-465.454 -68.54)" fill="#fff"/>
  <path id="Path_294" data-name="Path 294" d="M484.525,112.166A23.82,23.82,0,0,1,516.3,90.734l-.366-.056a25.857,25.857,0,0,1,15.248,8.964,24.235,24.235,0,0,1,5.141,18.72,22.774,22.774,0,0,1-10.846,16.007,27.558,27.558,0,0,1-14.421,3.34,29.215,29.215,0,0,1-17.678-5.984A24.217,24.217,0,0,1,484.525,112.166Z" transform="translate(-459.459 -62.978)" fill="#cae5e8"/>
  <g id="Group_63" data-name="Group 63">
    <path id="Path_295" data-name="Path 295" d="M511.653,86.488c14.326-4.806,29.417,1.044,38.486,12.918,8.916,11.673,11.3,30.085,1.892,42.123-10.428,13.35-30.2,18.226-46.091,13.346-14.677-4.51-28.232-18.346-27.609-34.528.358-9.293,6.168-18.97,12.33-25.668,6.549-7.117,15.775-11.7,25.583-10.55,2.729.318,2.754,4.644,0,4.316-15.846-1.894-28.726,12.773-32.858,26.869-4.382,14.95,8.1,29.532,21.427,34.477,13.517,5.012,30.3,2.093,40.773-8.042,10.244-9.915,9.69-26.278,2.268-37.771-7.618-11.8-22.272-17.215-35.937-15.521C510.748,88.6,510.64,86.827,511.653,86.488Z" transform="translate(-468.11 -68.792)" fill="#5790d3"/>
    <path id="Path_296" data-name="Path 296" d="M500.356,78.91c1.758,3.482.554,8.763.254,12.5a2.313,2.313,0,0,1-4.624,0c-.215-3.865-.474-9.791,2.494-12.742A1.2,1.2,0,0,1,500.356,78.91Z" transform="translate(-447.659 -74.8)" fill="#5790d3"/>
    <path id="Path_297" data-name="Path 297" d="M505.886,82.276a33.377,33.377,0,0,0-9.9-.986c-2.971.2-2.959-4.425,0-4.624a17.584,17.584,0,0,1,11.094,2.794A1.549,1.549,0,0,1,505.886,82.276Z" transform="translate(-449.793 -76.621)" fill="#5790d3"/>
    <path id="Path_298" data-name="Path 298" d="M498.856,86.6c-1.524,3.027-5.25,4.969-7.746,7.163-2.426,2.134-4.82,5.451-7.957,6.423a1.9,1.9,0,0,1-2.322-2.324c1.046-3.348,4.983-5.825,7.659-7.9,2.692-2.084,5.751-5,9.268-5.275A1.283,1.283,0,0,1,498.856,86.6Z" transform="translate(-414.111 -68.017)" fill="#5790d3"/>
    <path id="Path_299" data-name="Path 299" d="M485.623,92.617a10.907,10.907,0,0,0-5.054-5.364c-3.12-1.634-.358-6.358,2.763-4.725a13.81,13.81,0,0,1,6.729,8.217C490.879,93.313,486.741,95.164,485.623,92.617Z" transform="translate(-402.065 -70.676)" fill="#5790d3"/>
    <path id="Path_300" data-name="Path 300" d="M486.62,102.6c-3.191,1.857-6.811,2.194-10.44,2.169-3.135-.021-2.994-5.126,0-4.779,3.284.378,6.6.19,9.876.527A1.127,1.127,0,0,1,486.62,102.6Z" transform="translate(-388.073 -51.681)" fill="#5790d3"/>
    <path id="Path_301" data-name="Path 301" d="M478.363,99.85a21.785,21.785,0,0,1-.488,11.358,2.777,2.777,0,0,1-5.352-1.476,23.168,23.168,0,0,0,.488-8.408,2.868,2.868,0,0,1,1.938-3.412A2.8,2.8,0,0,1,478.363,99.85Z" transform="translate(-376.811 -53.987)" fill="#5790d3"/>
    <path id="Path_302" data-name="Path 302" d="M486.606,117.981c-1.6,2.589-3.883,5.244-6.716,6.491a3.067,3.067,0,0,1-4.061-1.065,3.034,3.034,0,0,1,1.065-4.061,19.072,19.072,0,0,0,4.787-4.243,2.934,2.934,0,0,1,3.9-1.024A2.886,2.886,0,0,1,486.606,117.981Z" transform="translate(-391.091 -37.031)" fill="#5790d3"/>
    <path id="Path_303" data-name="Path 303" d="M492.59,114.442c1.927,1.679,2.186,4.508,2.653,6.919.56,2.883,1.1,5.786,1.466,8.7a2.6,2.6,0,0,1-1.909,2.506,4.547,4.547,0,0,1-.691.093,2.606,2.606,0,0,1-2.506-1.909c-.529-2.885-.856-5.825-1.189-8.739-.279-2.45-.862-5.167.48-7.353A1.1,1.1,0,0,1,492.59,114.442Z" transform="translate(-431.051 -36.559)" fill="#5790d3"/>
    <path id="Path_304" data-name="Path 304" d="M502.576,125.532c-3.3,2.291-8.455,2.715-12.345,2.285-3.67-.405-3.811-6.133,0-5.858a36.251,36.251,0,0,0,5.666.079c1.861-.159,3.648-.705,5.513-.813C503.875,121.082,504.315,124.328,502.576,125.532Z" transform="translate(-432.538 -28.999)" fill="#5790d3"/>
    <path id="Path_305" data-name="Path 305" d="M477.061,105.193c2.508-.8,5.389-.012,7.957.4,3.267.529,6.528,1.106,9.791,1.658,2.938.5,1.737,5.207-1.251,4.533-3.215-.726-6.437-1.427-9.646-2.177-2.552-.6-5.277-.97-7.31-2.676A1.051,1.051,0,0,1,477.061,105.193Z" transform="translate(-402.374 -46.482)" fill="#5790d3"/>
    <path id="Path_306" data-name="Path 306" d="M479.577,105.033c3.17,1.416,2.262,7.537,1.363,10.072a2.782,2.782,0,1,1-5.107-2.153,14.241,14.241,0,0,0,1.069-4.109c.141-1.3.134-2.585,1.04-3.6A1.386,1.386,0,0,1,479.577,105.033Z" transform="translate(-386.114 -46.463)" fill="#5790d3"/>
    <path id="Path_307" data-name="Path 307" d="M515.821,98.492c-2.287-1.507-4.1-3.846-5.986-5.829-1.844-1.942-4.342-4.071-5.4-6.54-.945-2.21,1.1-4.977,3.534-3.534,2.343,1.39,4.109,4.026,5.806,6.135,1.712,2.126,3.908,4.264,5.093,6.722C519.76,97.3,517.831,99.813,515.821,98.492Z" transform="translate(-482.682 -70.676)" fill="#5790d3"/>
    <path id="Path_308" data-name="Path 308" d="M519.326,83.644a16.251,16.251,0,0,1-3.071,3.712,24.562,24.562,0,0,0-2.911,3.581c-2.326,3.478-7.293-.213-4.6-3.548,2.24-2.773,5.29-6.077,9.045-6.429C519.229,80.825,519.88,82.548,519.326,83.644Z" transform="translate(-490.902 -71.996)" fill="#5790d3"/>
    <path id="Path_309" data-name="Path 309" d="M521.811,112.1c-2.765,4.855-7.119,9.009-10.9,13.093-2.5,2.707-6.48-1.313-4.032-4.032,3.728-4.138,7.45-8.755,12.039-11.956C520.721,107.948,522.8,110.366,521.811,112.1Z" transform="translate(-489.618 -42.199)" fill="#5790d3"/>
    <path id="Path_310" data-name="Path 310" d="M519.245,125.724c-1.921-.711-3.455-2.248-5.01-3.559a16.393,16.393,0,0,1-4.144-4.311,2.921,2.921,0,0,1,3.964-3.964,19.576,19.576,0,0,1,4.413,3.631c1.348,1.257,3.046,2.421,4,4.014C523.664,123.543,521.642,126.613,519.245,125.724Z" transform="translate(-497.776 -37.175)" fill="#5790d3"/>
    <path id="Path_311" data-name="Path 311" d="M532.729,103.948c-2.789,1.5-6.092,1.084-9.187.937-3.871-.184-7.732-.552-11.582-.978a2.685,2.685,0,1,1,.718-5.3c3.873.565,7.748.957,11.638,1.354,2.856.29,5.941.182,8.414,1.722A1.323,1.323,0,0,1,532.729,103.948Z" transform="translate(-507.68 -53.188)" fill="#5790d3"/>
    <path id="Path_312" data-name="Path 312" d="M520.773,111.507c-1.541-1.365-1.433-4.26-1.706-6.162a18.691,18.691,0,0,1,.01-7.361,3.118,3.118,0,0,1,3.786-2.148,3.572,3.572,0,0,1,.734.31,3.117,3.117,0,0,1,1.414,3.474c-.833,2.849.159,5.914-.238,8.848C524.555,110.093,522.795,113.3,520.773,111.507Z" transform="translate(-518.701 -56.217)" fill="#5790d3"/>
    <path id="Path_313" data-name="Path 313" d="M515.236,100.687c-.978,1.2-2.955.775-4.2.352-1.743-.6-3.478-1.206-5.207-1.849-3.985-1.485-1.514-7.384,2.268-5.378C509.791,94.709,517.581,97.8,515.236,100.687Z" transform="translate(-478.429 -58.705)" fill="#5790d3"/>
    <path id="Path_314" data-name="Path 314" d="M516.947,95.1a25.323,25.323,0,0,0-2.721,5.91,3.619,3.619,0,0,1-4.39,2.492c-1.691-.465-3.222-2.593-2.492-4.39,1.365-3.364,3.387-6.3,7.035-7.351A2.3,2.3,0,0,1,516.947,95.1Z" transform="translate(-486.935 -60.549)" fill="#5790d3"/>
    <path id="Path_315" data-name="Path 315" d="M508.324,118.452c1.574,2.415.531,5.811-1,7.961a3.157,3.157,0,1,1-4.963-3.83c1.03-1.177,1.782-3.166,2.924-4.522A1.953,1.953,0,0,1,508.324,118.452Z" transform="translate(-467.049 -32.984)" fill="#5790d3"/>
    <path id="Path_316" data-name="Path 316" d="M488.488,121.751c-3.555-.833-6.468-3.43-9.036-5.908-2.3-2.215,1.365-5.844,3.486-3.488,2.2,2.442,4.911,4.429,6.938,7.012A1.439,1.439,0,0,1,488.488,121.751Z" transform="translate(-401.14 -39.282)" fill="#5790d3"/>
    <path id="Path_317" data-name="Path 317" d="M487.416,101.216a13.969,13.969,0,0,1,4.719-3.749,2.7,2.7,0,1,1,2.078,4.93,14.016,14.016,0,0,1-5.99.8A1.354,1.354,0,0,1,487.416,101.216Z" transform="translate(-424.675 -54.743)" fill="#5790d3"/>
    <path id="Path_318" data-name="Path 318" d="M489.552,103.981l.254-.192-.819,2.01a6.629,6.629,0,0,1-.085-.856c.11.4.217.806.327,1.208a12.416,12.416,0,0,1-.6-1.871c.509,1.288-.724-.389-.9-.6-1.079-1.3-2.031-2.676-2.982-4.072l7.074-2.982a19.759,19.759,0,0,0,3.04,7.148,3.97,3.97,0,1,1-6.855,4.005,21.465,21.465,0,0,1-3.65-9.1,3.876,3.876,0,0,1,7.074-2.982c1.522,2.428,3.6,5.2,3.352,8.2a3.375,3.375,0,0,1-5.238,2.8A1.6,1.6,0,0,1,489.552,103.981Z" transform="translate(-417.845 -58.252)" fill="#5790d3"/>
    <path id="Path_319" data-name="Path 319" d="M497,100.073c-.914-1.226-.844-2.719-.869-4.181-.025-1.632-.118-3.259-.258-4.884-.271-3.172,5.033-3.261,5,0-.025,2.736.461,7.281-1.7,9.346A1.409,1.409,0,0,1,497,100.073Z" transform="translate(-447.266 -63.835)" fill="#5790d3"/>
    <path id="Path_320" data-name="Path 320" d="M505.132,91.573c-.587,1.5-2.122,1.9-3.623,2.113-1.824.254-3.708.279-5.546.407q.378-2.788.755-5.575a12.922,12.922,0,0,0,6.737.316q-.354,2.692-.705,5.387a6.486,6.486,0,0,0-1.915-.358c-2.864-.438-2.574-4.861,0-5.509a6.686,6.686,0,0,1,4.89.777,2.977,2.977,0,0,1-.7,5.387,16.7,16.7,0,0,1-9.812-.527,2.878,2.878,0,0,1-2.035-3.114,2.824,2.824,0,0,1,2.787-2.461C497.547,88.479,506.53,88.01,505.132,91.573Z" transform="translate(-447.877 -64.284)" fill="#5790d3"/>
    <path id="Path_321" data-name="Path 321" d="M499.181,107.86c2.188,2.227,2.012,6.387,2.39,9.289.455,3.49-5.651,3.718-5.618,0,.025-2.752-.6-6.691,1.17-9.024A1.332,1.332,0,0,1,499.181,107.86Z" transform="translate(-447.96 -43.671)" fill="#5790d3"/>
    <path id="Path_322" data-name="Path 322" d="M507.6,114.577c-.939,3.716-6.507,4.324-9.628,4.179a3.732,3.732,0,0,1-3.656-3.656c0-1.8,1.681-3.881,3.656-3.656a38.051,38.051,0,0,0,4.45.143c1.431,0,2.955-.236,4.208.612A2.179,2.179,0,0,1,507.6,114.577Z" transform="translate(-450.814 -39.455)" fill="#5790d3"/>
    <path id="Path_323" data-name="Path 323" d="M506.111,111.029c-.777-1.708-1.21-3.449-2.589-4.789q2.491-.658,4.985-1.317a4.352,4.352,0,0,0,1.472,4.117l-4.437,1.805a2.719,2.719,0,0,0-.374-1.727c.037.066-.525-.866-.571-.726-.19-.188-.054-.182.409.023-.3-.033-.6-.077-.9-.128a2.575,2.575,0,0,1-1.785-3.141c1.038-3.482,4.859-2.291,6.735-.331a8.705,8.705,0,0,1,2.423,6.834c-.229,2.107-2.442,3.983-4.547,2.608a9.788,9.788,0,0,1-4.175-10.92,3.008,3.008,0,0,1,4.986-1.315c2.1,2.26,3.67,5.294,2.878,8.418C510.132,112.362,507.01,113,506.111,111.029Z" transform="translate(-471.047 -50.428)" fill="#5790d3"/>
    <path id="Path_324" data-name="Path 324" d="M493,109.218c-.258.3-.045-.012.008-.108.558-.968.13-.141.1.077a.867.867,0,0,0,.014.405c-.074-.2-.074-.213,0-.035.192.223.273.416.575.538a1.168,1.168,0,0,0,.993-.054c-.443.2.362-.275-.068.066-.364.289.172-.335-.085.1-.1.163-.192.331-.3.488-.254.38.13-.511.031-.037.033-.4.048-.507.041-.306q0,1.8-2.945-1.689.264-.171-.037.037a.99.99,0,0,0-.4.434c.265-.424-.161.577-.039.124.134-.5-.029.635-.025.149,0-.145.019-.285.01-.43a3.37,3.37,0,0,1,.411-1.971q-.1.766-.2,1.528l-.066-.211a1.827,1.827,0,0,1,1.745-2.291c.192-.014.161-.012-.089,0a2.544,2.544,0,0,1,1.33,0,2.777,2.777,0,0,1,1.292.821,3.771,3.771,0,0,1,.945,2.4,4.5,4.5,0,0,1-1.342,3.286c-1.474,1.423-4.078,1.526-5.242-.349a3.849,3.849,0,0,1,.132-3.931,6.333,6.333,0,0,1,2.426-2.454,3.757,3.757,0,0,1,4.491.707,3.3,3.3,0,0,1,.105,4.5,2.61,2.61,0,0,1-3.819.318A1.536,1.536,0,0,1,493,109.218Z" transform="translate(-430.199 -45.923)" fill="#5790d3"/>
    <path id="Path_325" data-name="Path 325" d="M500.3,104.213a6.112,6.112,0,0,1,2.423-1.483q-.931.93-1.865,1.863c.308-.821-.039.087.054.074l.087.124c-.2-.118-.4-.23-.6-.335,0,0-.631-.213-.848-.263.354.033.354.041,0,.023a1,1,0,0,0,.55-.194q.338-3.663.978-2.105c.093.188.19.374.294.558s.215.36.335.531c-.153-.211-.112-.186.128.077-.507-.256-.995-.474-1.516-.114a1.423,1.423,0,0,0-.411.494q.813-1.089.281-.329a2.95,2.95,0,0,1,5.445,1.474c.385,3.484-4.109,5.039-6.729,3.741-2.4-1.193-4.58-4.981-3.478-7.591,1.3-3.083,4.954-2.732,7.458-1.592a5.457,5.457,0,0,1,2.856,7.483,2.708,2.708,0,0,1-3.015,1.226,6.018,6.018,0,0,1-2.423-1.321A1.677,1.677,0,0,1,500.3,104.213Z" transform="translate(-451.182 -53.424)" fill="#5790d3"/>
  </g>
</svg>
